<?xml version="1.0" ?>
<!-- Uploaded to: SVG Repo, www.svgrepo.com, Generator: SVG Repo Mixer Tools -->
<svg fill="#000000" width="800px" height="800px" viewBox="0 0 56 56" id="Layer_1" version="1.1" xml:space="preserve" xmlns="http://www.w3.org/2000/svg" xmlns:xlink="http://www.w3.org/1999/xlink">
<g>
<path d="M14.6,32.9c0,1.9,2.8,2.9,5.5,2.9c2.7,0,5.5-1,5.5-2.9C25.7,29,14.6,29,14.6,32.9z M20.2,33.8c-2.2,0-3.4-0.7-3.5-0.9   c0.1-0.3,1.3-1,3.5-1c2.1,0,3.3,0.6,3.5,0.9C23.5,33.2,22.3,33.8,20.2,33.8z"/>
<path d="M35.3,47.4V32.9c0-4-6.5-7.1-15.1-7.1S5,28.8,5,32.9v14.5c0,1.1-0.4,2.2-1.2,2.9c-0.4,0.4-0.4,1,0,1.4   C4,51.9,4.3,52,4.6,52c0.2,0,0.5-0.1,0.7-0.3C6.4,50.6,7,49.1,7,47.4V36.5c2.6,2.1,7.4,3.5,13.1,3.5c5.8,0,10.6-1.4,13.1-3.5v10.9   c0,1.7,0.7,3.3,1.8,4.4c0.2,0.2,0.4,0.3,0.7,0.3c0.3,0,0.5-0.1,0.7-0.3c0.4-0.4,0.4-1,0-1.4C35.7,49.6,35.3,48.5,35.3,47.4z    M20.2,37.9C12.4,37.9,7,35.3,7,32.9s5.4-5.1,13.1-5.1s13.1,2.7,13.1,5.1S27.9,37.9,20.2,37.9z"/>
<path d="M9.2,39.8c-0.6,0-1,0.4-1,1v2c0,0.6,0.4,1,1,1s1-0.4,1-1v-2C10.2,40.3,9.8,39.8,9.2,39.8z"/>
<path d="M9.2,49c-0.6,0-1,0.4-1,1v2c0,0.6,0.4,1,1,1s1-0.4,1-1v-2C10.2,49.4,9.8,49,9.2,49z"/>
<path d="M12.5,41.8c-0.6,0-1,0.4-1,1v4.5c0,0.6,0.4,1,1,1s1-0.4,1-1v-4.5C13.5,42.3,13,41.8,12.5,41.8z"/>
<path d="M20.2,41.8c-0.6,0-1,0.4-1,1v4.5c0,0.6,0.4,1,1,1s1-0.4,1-1v-4.5C21.2,42.3,20.7,41.8,20.2,41.8z"/>
<path d="M27.8,41.8c-0.6,0-1,0.4-1,1v3.3c0,0.6,0.4,1,1,1s1-0.4,1-1v-3.3C28.8,42.3,28.4,41.8,27.8,41.8z"/>
<path d="M16.1,40c-0.6,0-1,0.4-1,1v3.6c0,0.6,0.4,1,1,1c0.6,0,1-0.4,1-1V41C17.1,40.4,16.7,40,16.1,40z"/>
<path d="M24.2,39.8c-0.6,0-1,0.4-1,1v3.6c0,0.6,0.4,1,1,1s1-0.4,1-1v-3.6C25.2,40.3,24.8,39.8,24.2,39.8z"/>
<path d="M31.2,38.6c-0.6,0-1,0.4-1,1V50c0,0.6,0.4,1,1,1s1-0.4,1-1V39.6C32.2,39,31.8,38.6,31.2,38.6z"/>
<path d="M16.1,48.1c-0.6,0-1,0.4-1,1v2.8c0,0.6,0.4,1,1,1c0.6,0,1-0.4,1-1v-2.8C17.1,48.5,16.7,48.1,16.1,48.1z"/>
<path d="M24.2,48.1c-0.6,0-1,0.4-1,1v2.8c0,0.6,0.4,1,1,1s1-0.4,1-1v-2.8C25.2,48.5,24.8,48.1,24.2,48.1z"/>
<path d="M49.9,6.2C49.9,6.2,49.9,6.2,49.9,6.2C49.9,6.2,49.8,6.2,49.9,6.2l-0.1-1.3C49.8,3.9,49,3,47.9,3h-4.5   c-1.1,0-1.9,0.9-1.9,1.9v1.3c-5.5-0.3-10.4-1.4-14.8-3.1c-0.4-0.1-0.8-0.1-1.1,0.2c-3.8,3.8-4.1,13.4-0.4,17.4l0.4,0.4   c0.2,0.2,0.5,0.3,0.7,0.3c0,0,0,0,0,0c0.3,0,0.5-0.1,0.7-0.3c3.6-3.7,8.6-4.5,14.4-4v11.7c0,0,0,0,0,0s0,0,0,0v7.8   c0,2.3,1.9,4.2,4.2,4.2c2.3,0,4.2-1.9,4.2-4.2V18.3c0,0,0.1,0,0.1,0c1.4,0,2.5-1.1,2.5-2.4V8.6C52.4,7.3,51.3,6.2,49.9,6.2z    M43.5,5h4.4v1.3c-1.5,0-3,0-4.4,0V5z M26.4,19C23.9,15.7,24,8.4,26.6,5.2c0.3,0.1,0.5,0.2,0.8,0.3c-2.2,4.3-2.1,8.8,0.2,12.6   C27.2,18.4,26.8,18.7,26.4,19z M47.8,17.9v9.9h-4.4V17.3C44.9,17.5,46.3,17.7,47.8,17.9z M45.6,38.8c-1.2,0-2.2-1-2.2-2.2v-6.8h4.4   v6.8C47.8,37.9,46.8,38.8,45.6,38.8z M50.4,15.9c0,0.2-0.2,0.4-0.4,0.4c-2.6-0.4-5.1-0.8-7.5-1.1c0,0,0,0,0,0c0,0,0,0,0,0   c-5-0.5-9.4-0.2-13.1,1.8c-2-3.3-2-7.1,0-10.9c4,1.2,8.3,1.9,13.1,2.1c0,0,0,0,0,0c0,0,0,0,0,0c2,0.1,4.1,0.1,6.3,0c0,0,0,0,0.1,0   c0,0,0,0,0.1,0c0.4,0,0.7,0,1.1,0c0.3,0,0.5,0.2,0.5,0.4V15.9z"/>
</g>
</svg>